<svg width="50" height="50" viewBox="0 0 50 50" fill="none" xmlns="http://www.w3.org/2000/svg">
<g clip-path="url(#clip0_47_14)">
<path d="M25.5812 3.49375C25.2082 3.34352 24.7918 3.34352 24.4188 3.49375L5.76875 10.9891L25 18.7169L44.2313 10.9891L25.5812 3.49375ZM46.875 13.3097L26.5625 21.4739V46.3496L46.875 38.1854V13.3097ZM23.4375 46.3528V21.4707L3.125 13.3097V38.1886L23.4375 46.3528ZM23.2594 0.576614C24.3768 0.127579 25.6232 0.127579 26.7406 0.576614L49.0187 9.53214C49.3084 9.64878 49.5567 9.84989 49.7315 10.1096C49.9064 10.3692 49.9999 10.6756 50 10.9891V38.1886C49.9996 38.816 49.8121 39.429 49.4618 39.9484C49.1114 40.4678 48.6143 40.8698 48.0344 41.1026L25.5812 50.1272C25.2082 50.2774 24.7918 50.2774 24.4188 50.1272L1.96875 41.1026C1.38828 40.8703 0.890445 40.4685 0.539506 39.949C0.188568 39.4296 0.000644779 38.8164 0 38.1886L0 10.9891C7.26248e-05 10.6756 0.0935742 10.3692 0.268459 10.1096C0.443345 9.84989 0.691602 9.64878 0.98125 9.53214L23.2594 0.576614Z" fill="#E96704"/>
</g>
<defs>
<clipPath id="clip0_47_14">
<rect width="50" height="50" fill="white"/>
</clipPath>
</defs>
</svg>
