<svg width="12" height="12" viewBox="0 0 12 12" fill="none" xmlns="http://www.w3.org/2000/svg">
<g clip-path="url(#clip0_14_76)">
<path d="M11.3375 0H0.6625C0.2965 0 0 0.2965 0 0.6625V11.338C0 11.7035 0.2965 12 0.6625 12H6.41V7.353H4.846V5.542H6.41V4.2065C6.41 2.6565 7.3565 1.8125 8.7395 1.8125C9.402 1.8125 9.971 1.862 10.137 1.884V3.504L9.178 3.5045C8.426 3.5045 8.2805 3.862 8.2805 4.386V5.5425H10.074L9.8405 7.3535H8.2805V12H11.3385C11.7035 12 12 11.7035 12 11.3375V0.6625C12 0.2965 11.7035 0 11.3375 0Z" fill="currentColor"/>
</g>
<defs>
<clipPath id="clip0_14_76">
<rect width="12" height="12" fill="white"/>
</clipPath>
</defs>
</svg>
