<svg width="19" height="19" viewBox="0 0 19 19" fill="none" xmlns="http://www.w3.org/2000/svg">
<path fill-rule="evenodd" clip-rule="evenodd" d="M16.1437 2.86243C14.3798 1.09851 12.036 0.125 9.53967 0.125C4.39441 0.125 0.204346 4.31201 0.204346 9.45728C0.201294 11.1022 0.631592 12.7074 1.44946 14.1234L0.125 18.9604L5.07495 17.6604C6.43604 18.405 7.97412 18.7957 9.53662 18.7987H9.53967C14.6849 18.7987 18.8719 14.6117 18.875 9.46338C18.875 6.97009 17.9045 4.62634 16.1437 2.86243ZM9.53967 17.2209H9.53662C8.14502 17.2209 6.77783 16.8456 5.58765 16.1406L5.30383 15.9728L2.36499 16.7418L3.14929 13.8793L2.96619 13.5863C2.18799 12.3503 1.77905 10.9221 1.77905 9.45728C1.77905 5.18176 5.26111 1.70276 9.54272 1.70276C11.6149 1.70276 13.5619 2.51148 15.0267 3.97632C16.4916 5.44421 17.2972 7.39124 17.2972 9.46338C17.2972 13.7419 13.8152 17.2209 9.53967 17.2209ZM13.7938 11.4104C13.5619 11.2944 12.4144 10.7299 12.2008 10.6536C11.9872 10.5742 11.8315 10.5376 11.6759 10.7695C11.5203 11.0045 11.0747 11.5294 10.9374 11.6851C10.8031 11.8376 10.6658 11.859 10.4338 11.743C10.1989 11.6271 9.44812 11.3799 8.55701 10.5834C7.86426 9.96692 7.39429 9.20093 7.26001 8.969C7.12268 8.73401 7.24475 8.60889 7.36072 8.49292C7.46753 8.38916 7.5957 8.22131 7.71167 8.08398C7.82764 7.94971 7.86731 7.85205 7.94666 7.69641C8.02295 7.54077 7.98328 7.40344 7.92529 7.28748C7.86731 7.17151 7.40039 6.021 7.20508 5.55408C7.01587 5.09937 6.82361 5.16345 6.68018 5.1543C6.5459 5.14819 6.39026 5.14819 6.23462 5.14819C6.07898 5.14819 5.82568 5.20618 5.61206 5.44116C5.39844 5.6731 4.79724 6.23767 4.79724 7.38513C4.79724 8.53259 5.63342 9.64343 5.74939 9.79907C5.86536 9.95166 7.39429 12.3076 9.73499 13.3177C10.2904 13.5588 10.7238 13.7023 11.0625 13.8091C11.621 13.9861 12.1306 13.9617 12.5334 13.9037C12.9821 13.8365 13.9128 13.3391 14.1082 12.7928C14.3004 12.2496 14.3004 11.7827 14.2424 11.6851C14.1844 11.5874 14.0288 11.5294 13.7938 11.4104Z" fill="currentColor"/>
</svg>
